HIERARCHY
ROOT root
{
	OFFSET 0.000000 0.000000 0.000000
	CHANNELS 6 Xposition Yposition Zposition Zrotation Yrotation Xrotation
	JOINT lhip
	{
		OFFSET 0.058581 -0.082280 -0.017664
		CHANNELS 3 Zrotation Yrotation Xrotation
		JOINT lknee
		{
			OFFSET 0.043451 -0.386469 0.008037
			CHANNELS 3 Zrotation Yrotation Xrotation
			JOINT lankle
			{
				OFFSET -0.014790 -0.426874 -0.037428
				CHANNELS 3 Zrotation Yrotation Xrotation
				JOINT ltoe
				{
					OFFSET 0.041054 -0.060286 0.122042
					CHANNELS 3 Zrotation Yrotation Xrotation
					End Site
					{
						OFFSET 0.000000 0.000000 0.000000
					}
				}
			}
		}
	}
	JOINT rhip
	{
		OFFSET -0.060310 -0.090513 -0.013543
		CHANNELS 3 Zrotation Yrotation Xrotation
		JOINT rknee
		{
			OFFSET -0.043257 -0.383688 -0.004843
			CHANNELS 3 Zrotation Yrotation Xrotation
			JOINT rankle
			{
				OFFSET 0.019056 -0.420046 -0.034562
				CHANNELS 3 Zrotation Yrotation Xrotation
				JOINT rtoe
				{
					OFFSET -0.034840 -0.062106 0.130323
					CHANNELS 3 Zrotation Yrotation Xrotation
					End Site
					{
						OFFSET 0.000000 0.000000 0.000000
					}
				}
			}
		}
	}
	JOINT lowerback
	{
		OFFSET 0.004439 0.124404 -0.038385
		CHANNELS 3 Zrotation Yrotation Xrotation
		JOINT upperback
		{
			OFFSET 0.004488 0.137956 0.026820
			CHANNELS 3 Zrotation Yrotation Xrotation
			JOINT chest
			{
				OFFSET -0.002265 0.056032 0.002855
				CHANNELS 3 Zrotation Yrotation Xrotation
				JOINT lowerneck
				{
					OFFSET -0.013390 0.211636 -0.033468
					CHANNELS 3 Zrotation Yrotation Xrotation
					JOINT upperneck
					{
						OFFSET 0.010113 0.088937 0.050410
						CHANNELS 3 Zrotation Yrotation Xrotation
						End Site
						{
							OFFSET 0.000000 0.000000 0.000000
						}
					}
				}
				JOINT lclavicle
				{
					OFFSET 0.071702 0.114000 -0.018898
					CHANNELS 3 Zrotation Yrotation Xrotation
					JOINT lshoulder
					{
						OFFSET 0.122921 0.045205 -0.019046
						CHANNELS 3 Zrotation Yrotation Xrotation
						JOINT lelbow
						{
							OFFSET 0.255332 -0.015649 -0.022946
							CHANNELS 3 Zrotation Yrotation Xrotation
							JOINT lwrist
							{
								OFFSET 0.265709 0.012698 -0.007375
								CHANNELS 3 Zrotation Yrotation Xrotation
								End Site
								{
									OFFSET 0.000000 0.000000 0.000000
								}
							}
						}
					}
				}
				JOINT rclavicle
				{
					OFFSET -0.082954 0.112472 -0.023707
					CHANNELS 3 Zrotation Yrotation Xrotation
					JOINT rshoulder
					{
						OFFSET -0.113228 0.046853 -0.008472
						CHANNELS 3 Zrotation Yrotation Xrotation
						JOINT relbow
						{
							OFFSET -0.260127 -0.014369 -0.031269
							CHANNELS 3 Zrotation Yrotation Xrotation
							JOINT rwrist
							{
								OFFSET -0.269108 0.006794 -0.006027
								CHANNELS 3 Zrotation Yrotation Xrotation
								End Site
								{
									OFFSET 0.000000 0.000000 0.000000
								}
							}
						}
					}
				}
			}
		}
	}
}
MOTION
Frames: 5
Frame Time: 0.033333
0.561233 0.636246 0.584514 -85.212793 -0.016959 53.154574 18.966497 9.552886 -51.191058 -7.765491 2.533543 82.536721 -7.171102 -4.981650 1.799556 0.000000 -0.000000 0.000000 -20.755767 -9.682220 -50.629738 -3.635541 -1.700160 82.883006 -0.667549 -1.514319 3.191858 0.000000 -0.000000 0.000000 2.660977 -2.095165 67.692678 -2.724656 -3.311280 10.542817 1.505819 0.494760 -5.779157 -12.380943 -4.848372 -12.195069 10.571524 0.589562 -13.068835 -8.534303 -39.918417 -2.607191 -36.132476 -22.988889 -0.126088 25.012272 -72.855960 7.218768 19.196799 -18.723919 6.475444 4.773395 45.300278 3.910842 35.965030 25.128010 -4.755512 -42.128241 68.033676 -24.899653 -20.671611 10.712828 0.011476 
0.561267 0.636171 0.584037 -85.184330 -0.041431 53.333113 19.050479 9.513637 -51.427164 -7.583479 2.757598 82.636241 -7.015350 -5.248441 1.736021 0.000000 -0.000000 0.000000 -20.919769 -9.801616 -50.842092 -3.408055 -1.851148 82.936038 -0.477078 -1.377985 3.377246 0.000000 -0.000000 0.000000 2.762988 -2.127575 67.337322 -2.673457 -3.324893 10.480028 1.353651 0.296985 -5.261601 -12.113094 -4.341022 -13.042916 10.334179 0.153640 -12.387184 -8.312388 -39.760166 -2.758688 -36.092588 -23.166978 -0.260043 25.644918 -73.018973 6.479314 18.744401 -18.666070 7.103041 4.621513 45.066388 3.437288 36.042394 25.426719 -4.278109 -41.766465 67.973713 -24.566287 -21.492095 11.030705 0.255276 
0.561226 0.636401 0.584472 -85.189940 0.078452 53.204833 19.101008 9.486112 -51.290813 -7.521309 2.620730 82.582929 -7.223735 -5.201956 1.691545 0.000000 -0.000000 0.000000 -20.719184 -9.564371 -50.734108 -3.419586 -1.599670 83.043320 -0.345298 -1.309342 3.486872 0.000000 -0.000000 0.000000 2.829489 -2.262106 67.588951 -2.675296 -3.284170 10.378777 1.362231 0.333658 -5.270719 -12.144795 -4.338915 -13.065443 10.281666 0.094515 -12.321422 -8.322814 -39.864976 -2.654890 -36.089366 -23.066790 -0.424852 26.043200 -73.116935 5.922927 18.536389 -18.697870 7.467826 4.589132 45.087014 3.295037 36.236639 25.415653 -4.148773 -41.389404 68.096812 -24.453676 -23.354148 11.077803 2.019858 
0.560647 0.636543 0.584322 -85.142995 0.071926 53.383476 19.197447 9.348252 -51.497536 -7.336311 2.802516 82.652576 -7.087685 -5.365685 1.767486 0.000000 -0.000000 0.000000 -20.887593 -9.554615 -50.682164 -4.023253 -2.102713 82.753959 -0.364054 -1.802486 3.160567 0.000000 -0.000000 0.000000 2.804868 -2.368458 67.513995 -2.666034 -3.227526 10.348048 1.372466 0.341804 -5.486534 -12.038085 -4.874754 -13.117636 10.130671 0.279048 -12.268143 -8.607426 -39.678260 -2.636640 -36.339853 -23.137575 -0.211394 26.381430 -73.178905 5.483361 18.568045 -18.972312 7.480856 4.386924 45.135771 3.241330 36.675497 25.297115 -3.849909 -42.915395 68.001278 -26.277668 -22.410357 10.826029 1.315362 
0.560559 0.636308 0.584108 -85.045681 0.043341 53.701704 19.165317 9.284642 -51.850060 -7.407358 2.947505 82.606137 -6.625559 -5.456210 1.442542 0.000000 -0.000000 0.000000 -21.046127 -9.677918 -51.080493 -3.619942 -2.001854 82.988935 -0.386602 -1.423986 3.507614 0.000000 -0.000000 0.000000 2.833378 -2.375579 67.320467 -2.596399 -3.252049 9.987852 1.412651 0.271421 -5.310616 -12.033102 -4.951591 -12.724613 10.130722 0.325031 -12.513896 -8.813677 -39.684837 -2.458392 -36.427866 -23.205680 -0.174763 26.839094 -73.110495 5.155388 17.986475 -19.165475 7.564161 4.495893 45.166309 3.464526 36.486777 25.299374 -3.804168 -43.298098 68.027136 -26.388509 -22.866068 10.899428 1.586172 
